<?xml version="1.0" standalone="no"?>
<!DOCTYPE svg PUBLIC "-//W3C//DTD SVG 20010904//EN"
 "http://www.w3.org/TR/2001/REC-SVG-20010904/DTD/svg10.dtd">
<svg version="1.0" xmlns="http://www.w3.org/2000/svg"
 width="503.000000pt" height="503.000000pt" viewBox="0 0 503.000000 503.000000"
 preserveAspectRatio="xMidYMid meet">
<metadata>
Created by potrace 1.14, written by Peter Selinger 2001-2017
</metadata>
<g transform="translate(0.000000,503.000000) scale(0.100000,-0.100000)"
fill="#000000" stroke="none">
<path d="M2298 5025 c-2 -1 -39 -5 -83 -9 -44 -4 -89 -9 -100 -11 -11 -3 -33
-6 -50 -9 -190 -28 -421 -104 -643 -212 -296 -143 -532 -320 -762 -570 -94
-102 -114 -126 -187 -229 -242 -341 -380 -684 -444 -1100 -14 -90 -20 -578 -8
-670 34 -267 109 -525 223 -770 57 -122 178 -325 254 -426 295 -395 735 -718
1194 -875 80 -27 272 -79 328 -88 53 -9 93 -16 115 -20 11 -3 52 -8 90 -12 39
-3 81 -8 95 -10 36 -5 361 -5 390 0 14 3 50 7 80 11 305 33 632 133 880 268
127 69 138 75 246 148 113 75 115 77 238 184 281 244 524 575 660 902 21 48
41 97 46 108 37 83 116 373 126 461 3 27 8 60 11 74 9 40 11 587 2 668 -12
107 -17 136 -45 252 -84 352 -249 698 -466 974 -123 157 -267 304 -403 411
-27 22 -52 43 -55 46 -10 12 -215 146 -289 189 -65 37 -115 62 -256 125 -16 7
-50 21 -75 30 -25 9 -54 21 -65 25 -11 5 -42 15 -70 23 -27 8 -75 22 -105 31
-65 19 -216 52 -280 61 -25 4 -63 10 -85 14 -37 7 -500 13 -507 6z m454 -50
c280 -26 602 -116 840 -236 143 -72 371 -216 430 -272 7 -7 36 -30 63 -51 86
-67 297 -287 376 -392 41 -55 101 -142 133 -193 64 -104 174 -320 201 -396 10
-27 22 -54 25 -60 9 -12 62 -185 85 -275 20 -77 42 -198 52 -289 10 -83 10
-464 1 -551 -33 -305 -105 -556 -238 -822 -284 -567 -728 -982 -1295 -1209
-82 -32 -279 -96 -324 -104 -47 -9 -66 -13 -106 -24 -22 -6 -65 -13 -95 -16
-30 -4 -61 -8 -68 -11 -50 -16 -394 -23 -527 -11 -593 55 -1116 298 -1531 711
-194 193 -347 411 -474 671 -83 169 -131 297 -175 462 -3 12 -7 30 -9 40 -2
10 -11 53 -20 95 -30 147 -37 244 -36 503 2 255 7 316 41 475 11 52 22 106 25
120 11 52 87 268 126 360 176 402 444 740 805 1013 167 127 487 287 720 360
171 54 369 93 525 104 51 3 94 7 96 8 5 4 283 -3 354 -10z"/>
<path d="M2408 4926 c-1 -2 -42 -6 -89 -10 -47 -4 -95 -8 -105 -10 -10 -2 -44
-7 -74 -11 -30 -4 -91 -16 -135 -27 -44 -10 -90 -21 -103 -24 -12 -2 -59 -16
-105 -30 -737 -233 -1323 -809 -1561 -1536 -85 -261 -121 -486 -121 -763 0
-195 6 -261 40 -436 62 -318 164 -578 334 -847 102 -161 188 -269 326 -407
135 -135 161 -157 320 -270 237 -169 512 -294 810 -369 112 -28 131 -31 265
-51 97 -14 546 -14 620 0 321 59 530 126 760 241 540 271 955 734 1169 1305
63 170 96 298 125 489 24 157 25 582 1 695 -3 11 -7 36 -9 55 -54 382 -252
813 -520 1135 -219 263 -483 470 -791 621 -135 66 -402 165 -480 177 -16 3
-48 9 -70 15 -44 12 -232 41 -310 48 -69 6 -292 13 -297 10z m909 -1061 c21
-24 22 -28 9 -53 -8 -15 -25 -37 -38 -50 l-25 -22 -27 21 c-23 18 -35 20 -78
15 -103 -14 -140 -48 -212 -199 -72 -149 -92 -219 -100 -345 -5 -75 -13 -88
-52 -75 -62 21 -83 91 -57 193 16 61 76 191 124 269 18 28 30 54 27 57 -4 3
-24 -4 -47 -15 -42 -22 -142 -51 -173 -51 -28 0 -44 44 -28 75 15 28 39 40 54
25 16 -16 29 -13 123 31 145 68 173 80 283 120 126 47 180 48 217 4z m-100
-168 c16 -12 -3 -51 -42 -87 -27 -25 -90 -112 -114 -159 -15 -28 -8 -25 51 21
20 15 52 35 72 43 31 13 37 13 50 0 14 -15 13 -41 -4 -80 -28 -63 -50 -150
-45 -176 5 -21 2 -30 -14 -38 -27 -15 -76 -14 -88 2 -19 23 2 110 44 185 13
23 21 42 19 42 -18 0 -101 -105 -133 -168 -21 -40 -47 -77 -58 -81 -61 -24
-78 34 -40 136 39 103 126 270 164 315 51 60 99 76 138 45z m-1037 -72 c58
-30 62 -122 8 -229 -54 -109 -214 -285 -310 -343 -78 -47 -102 -50 -133 -19
l-26 26 29 53 c38 67 43 140 12 157 -71 38 -161 -131 -138 -257 9 -50 85 -250
98 -258 5 -3 56 16 112 43 57 26 125 57 151 68 58 23 66 33 152 198 120 231
180 309 268 346 81 35 142 24 188 -33 23 -29 13 -55 -50 -126 -74 -84 -94
-112 -157 -218 -58 -98 -237 -451 -249 -493 -5 -14 26 16 70 70 182 223 322
329 422 317 87 -10 94 -67 28 -222 -100 -234 -125 -374 -86 -473 12 -29 21
-57 21 -62 0 -11 -91 -56 -150 -73 -58 -17 -117 -13 -142 10 -17 16 -19 26
-14 88 12 143 50 275 130 449 42 92 44 101 14 85 -67 -36 -190 -202 -273 -368
-45 -90 -115 -284 -115 -318 0 -9 -10 -27 -22 -40 -41 -43 -146 -22 -191 38
-24 34 -28 105 -10 188 15 66 87 283 137 415 15 38 25 73 24 77 -2 7 -198 -98
-216 -116 -3 -2 -6 -66 -7 -142 -2 -104 -8 -159 -25 -223 -87 -337 -270 -572
-529 -681 -64 -27 -89 -33 -158 -33 -67 -1 -86 3 -110 20 -159 116 -19 466
332 829 170 176 176 184 170 223 -3 19 -26 87 -52 151 -46 111 -48 120 -48
216 0 89 3 107 28 159 79 168 263 303 426 312 63 3 128 -18 146 -46 8 -13 35
20 112 140 53 82 77 110 95 110 5 0 22 -7 38 -15z m1305 -68 c43 -32 -23 -142
-111 -184 -44 -21 -49 -37 -13 -41 18 -2 47 11 94 43 75 52 95 62 95 48 0 -30
-169 -165 -223 -178 -131 -33 -113 145 26 259 39 32 94 66 108 66 3 0 13 -6
24 -13z m506 -314 c61 -36 68 -116 25 -278 -86 -321 -317 -565 -473 -500 -70
30 -88 117 -42 207 32 62 111 128 147 122 6 -1 16 -2 21 -3 20 -3 18 -31 -4
-72 -12 -24 -32 -62 -44 -84 -50 -94 -6 -73 60 28 114 175 226 487 176 487
-44 0 -169 -124 -257 -255 -124 -184 -188 -373 -216 -637 -3 -34 -8 -66 -10
-69 -2 -4 -6 -80 -10 -170 -4 -90 -11 -172 -16 -182 -20 -39 -115 -59 -172
-37 -14 5 -35 24 -47 42 -18 29 -20 44 -15 133 2 55 7 114 10 130 2 17 9 59
15 95 6 36 13 76 16 90 4 14 8 36 11 50 21 105 76 292 109 373 12 29 -12 19
-38 -15 -14 -18 -36 -55 -50 -83 -69 -137 -233 -322 -323 -365 -27 -12 -76
-25 -109 -27 -51 -4 -64 -2 -87 16 -123 97 14 517 239 737 29 29 65 54 81 57
17 3 47 22 68 42 53 48 96 67 146 63 67 -5 83 -36 85 -164 1 -57 5 -109 8
-114 12 -19 44 15 75 79 110 227 134 260 191 265 45 4 97 -20 112 -51 13 -29
22 -29 55 3 97 92 198 126 263 87z m117 -840 c-8 -8 -30 -22 -49 -31 -21 -10
-35 -26 -37 -40 -3 -20 0 -22 33 -16 47 7 44 -14 -4 -37 -18 -8 -38 -23 -43
-32 -8 -15 -3 -17 42 -17 27 0 50 -4 50 -10 0 -13 -74 -50 -100 -50 -27 0 -39
33 -35 101 1 29 3 64 4 76 0 13 12 30 26 39 59 39 147 52 113 17z m-353 -110
c-12 -64 -100 -243 -122 -250 -14 -5 -74 121 -81 170 -4 32 -2 37 16 37 19 0
40 -32 57 -87 3 -13 10 -23 15 -23 10 0 45 75 55 117 6 32 27 52 52 53 6 0 10
-8 8 -17z m-840 -305 c-3 -7 -18 -20 -34 -29 -28 -17 -33 -29 -46 -124 -10
-69 -15 -87 -28 -82 -7 2 -13 27 -15 63 -4 96 -7 104 -42 97 -43 -8 -40 19 5
46 63 37 170 56 160 29z m-491 -224 c46 -92 49 -100 41 -123 -7 -22 -29 -28
-40 -11 -13 20 -105 1 -105 -22 0 -11 -38 -48 -50 -48 -16 0 -12 20 26 120 40
103 70 153 88 147 6 -1 24 -30 40 -63z m-430 -93 c4 -5 -14 -19 -38 -31 -52
-25 -70 -44 -62 -65 4 -12 11 -13 31 -5 35 13 45 13 45 -4 0 -8 -18 -21 -40
-30 -29 -12 -40 -22 -40 -37 0 -19 4 -21 33 -14 51 11 60 11 64 -3 6 -15 -71
-51 -109 -52 -18 0 -29 6 -33 20 -6 19 2 150 11 182 9 31 123 63 138 39z
m-473 -171 c23 -13 25 -58 4 -86 -20 -26 -19 -48 5 -69 11 -10 20 -24 20 -32
0 -20 -54 -16 -83 7 -23 18 -27 19 -41 4 -9 -8 -16 -26 -16 -38 0 -29 -10 -39
-27 -25 -9 8 -13 40 -13 111 l0 99 43 19 c48 21 80 24 108 10z m-433 -178 c4
-28 -16 -36 -54 -22 -27 11 -31 9 -61 -26 -36 -40 -43 -83 -18 -104 14 -12 29
-11 100 6 l30 7 -25 -28 c-42 -45 -113 -64 -149 -39 -36 26 -23 131 21 181 30
32 79 53 118 51 28 -2 36 -8 38 -26z"/>
<path d="M1347 2254 c-152 -152 -247 -289 -293 -424 -38 -114 -33 -129 34 -86
145 93 247 238 327 466 54 155 47 159 -68 44z"/>
<path d="M3390 3483 c-34 -40 -51 -73 -38 -73 15 0 61 67 56 81 -2 5 -10 1
-18 -8z"/>
<path d="M3110 2973 c-15 -48 -10 -83 12 -97 26 -16 33 -1 33 67 0 50 -3 62
-17 65 -12 2 -20 -8 -28 -35z"/>
<path d="M2929 2838 c-48 -84 -87 -184 -106 -274 -16 -70 -15 -75 2 -93 22
-26 37 -19 106 52 80 81 134 156 123 172 -5 7 -22 29 -37 48 -17 21 -33 59
-40 96 l-13 61 -35 -62z"/>
<path d="M3234 2098 c-10 -46 -12 -164 -3 -179 8 -14 14 3 27 81 6 41 7 60 3
113 -2 29 -19 19 -27 -15z"/>
<path d="M2354 1717 c-20 -41 -16 -52 15 -42 22 7 28 39 12 64 -7 12 -13 7
-27 -22z"/>
<path d="M1442 1462 c-8 -6 -12 -24 -10 -48 l3 -39 33 33 c19 17 32 38 30 45
-6 15 -38 20 -56 9z"/>
</g>
</svg>
