<svg aria-hidden="true" style="position: absolute; width: 0; height: 0; overflow: hidden;" version="1.1" xmlns="http://www.w3.org/2000/svg" xmlns:xlink="http://www.w3.org/1999/xlink">
<defs>
<symbol id="icon-heart" viewBox="0 0 32 32">
<path d="M16.042 8.345c0 0-2-4.262-6.5-4.262-4.917 0-7.5 4.167-7.5 8.333 0 6.917 14 15.5 14 15.5s13.916-8.5 13.916-15.5c0-4.25-2.666-8.333-7.416-8.333s-6.5 4.262-6.5 4.262z"></path>
</symbol>
<symbol id="icon-search" viewBox="0 0 24 24">
<path d="M0.793 21.168l1.414 1.414 4.385-4.385-1.377-1.451-4.422 4.422zM14.125 1c-4.9 0-8.875 3.974-8.875 8.875 0 1.919 0.617 3.69 1.652 5.143l1.67 1.76c1.521 1.227 3.447 1.973 5.553 1.973 4.902 0 8.875-3.974 8.875-8.875s-3.973-8.876-8.875-8.876zM14.125 16.75c-3.791 0-6.875-3.084-6.875-6.875s3.084-6.875 6.875-6.875 6.875 3.084 6.875 6.875-3.084 6.875-6.875 6.875z"></path>
</symbol>
<symbol id="icon-shop" viewBox="0 0 24 24">
<path d="M11 21c0-0.552-0.225-1.053-0.586-1.414s-0.862-0.586-1.414-0.586-1.053 0.225-1.414 0.586-0.586 0.862-0.586 1.414 0.225 1.053 0.586 1.414 0.862 0.586 1.414 0.586 1.053-0.225 1.414-0.586 0.586-0.862 0.586-1.414zM22 21c0-0.552-0.225-1.053-0.586-1.414s-0.862-0.586-1.414-0.586-1.053 0.225-1.414 0.586-0.586 0.862-0.586 1.414 0.225 1.053 0.586 1.414 0.862 0.586 1.414 0.586 1.053-0.225 1.414-0.586 0.586-0.862 0.586-1.414zM7.221 7h14.57l-1.371 7.191c-0.046 0.228-0.166 0.425-0.332 0.568-0.18 0.156-0.413 0.246-0.688 0.241h-9.734c-0.232 0.003-0.451-0.071-0.626-0.203-0.19-0.143-0.329-0.351-0.379-0.603zM1 2h3.18l0.848 4.239c0.108 0.437 0.502 0.761 0.972 0.761h1.221l-0.4-2h-0.821c-0.552 0-1 0.448-1 1 0 0.053 0.004 0.105 0.012 0.155 0.004 0.028 0.010 0.057 0.017 0.084l1.671 8.347c0.149 0.751 0.57 1.383 1.14 1.811 0.521 0.392 1.17 0.613 1.854 0.603h9.706c0.748 0.015 1.455-0.261 1.995-0.727 0.494-0.426 0.848-1.013 0.985-1.683l1.602-8.402c0.103-0.543-0.252-1.066-0.795-1.17-0.065-0.013-0.13-0.019-0.187-0.018h-16.18l-0.84-4.196c-0.094-0.462-0.497-0.804-0.98-0.804h-4c-0.552 0-1 0.448-1 1s0.448 1 1 1z"></path>
</symbol>
<symbol id="icon-facebook" viewBox="0 0 24 24">
<path d="M21.984 12q0-2.063-0.773-3.867t-2.156-3.188-3.188-2.156-3.867-0.773-3.867 0.773-3.188 2.156-2.156 3.188-0.773 3.867q0 1.828 0.586 3.445t1.688 2.93 2.555 2.203 3.141 1.219v-6.797h-1.969v-3h1.969v-2.484q0-0.984 0.492-1.781t1.266-1.266 1.758-0.469h2.484v3h-1.969q-0.422 0-0.727 0.305t-0.305 0.68v2.016h3v3h-3v6.938q1.922-0.188 3.563-1.031t2.859-2.18 1.898-3.047 0.68-3.68z"></path>
</symbol>
<symbol id="icon-instagram" viewBox="0 0 20 20">
<path d="M13 10c0 1.657-1.343 3-3 3s-3-1.343-3-3c0-0.171 0.018-0.338 0.049-0.5h-1.049v3.997c0 0.278 0.225 0.503 0.503 0.503h6.995c0.277 0 0.502-0.225 0.502-0.503v-3.997h-1.049c0.031 0.162 0.049 0.329 0.049 0.5zM10 12c1.104 0 2-0.896 2-2s-0.896-2-2-2-2 0.896-2 2 0.896 2 2 2zM12.4 7.9h1.199c0.166 0 0.301-0.135 0.301-0.3v-1.199c0-0.166-0.135-0.301-0.301-0.301h-1.199c-0.166 0-0.301 0.135-0.301 0.301v1.199c0.001 0.165 0.136 0.3 0.301 0.3zM10 0.4c-5.302 0-9.6 4.298-9.6 9.6s4.298 9.6 9.6 9.6c5.302 0 9.6-4.298 9.6-9.6s-4.298-9.6-9.6-9.6zM15 13.889c0 0.611-0.5 1.111-1.111 1.111h-7.778c-0.611 0-1.111-0.5-1.111-1.111v-7.778c0-0.611 0.5-1.111 1.111-1.111h7.778c0.611 0 1.111 0.5 1.111 1.111v7.778z"></path>
</symbol>
<symbol id="icon-twitter" viewBox="0 0 20 20">
<path d="M10 0.4c-5.302 0-9.6 4.298-9.6 9.6s4.298 9.6 9.6 9.6 9.6-4.298 9.6-9.6-4.298-9.6-9.6-9.6zM13.905 8.264c0.004 0.082 0.005 0.164 0.005 0.244 0 2.5-1.901 5.381-5.379 5.381-1.068 0-2.062-0.312-2.898-0.85 0.147 0.018 0.298 0.025 0.451 0.025 0.886 0 1.701-0.301 2.348-0.809-0.827-0.016-1.525-0.562-1.766-1.312 0.115 0.021 0.233 0.033 0.355 0.033 0.172 0 0.34-0.023 0.498-0.066-0.865-0.174-1.517-0.938-1.517-1.854v-0.023c0.255 0.141 0.547 0.227 0.857 0.237-0.508-0.34-0.841-0.918-0.841-1.575 0-0.346 0.093-0.672 0.256-0.951 0.933 1.144 2.325 1.896 3.897 1.977-0.033-0.139-0.049-0.283-0.049-0.432 0-1.043 0.846-1.891 1.891-1.891 0.543 0 1.035 0.23 1.38 0.598 0.431-0.086 0.835-0.242 1.2-0.459-0.141 0.441-0.44 0.812-0.831 1.047 0.383-0.047 0.747-0.148 1.086-0.299-0.253 0.379-0.574 0.713-0.943 0.979z"></path>
</symbol>
<symbol id="icon-arrow-right" viewBox="0 0 32 32">
<path d="M19.414 27.414l10-10c0.781-0.781 0.781-2.047 0-2.828l-10-10c-0.781-0.781-2.047-0.781-2.828 0s-0.781 2.047 0 2.828l6.586 6.586h-19.172c-1.105 0-2 0.895-2 2s0.895 2 2 2h19.172l-6.586 6.586c-0.39 0.39-0.586 0.902-0.586 1.414s0.195 1.024 0.586 1.414c0.781 0.781 2.047 0.781 2.828 0z"></path>
</symbol>
<symbol id="icon-arrow-left" viewBox="0 0 32 32">
<path d="M12.586 27.414l-10-10c-0.781-0.781-0.781-2.047 0-2.828l10-10c0.781-0.781 2.047-0.781 2.828 0s0.781 2.047 0 2.828l-6.586 6.586h19.172c1.105 0 2 0.895 2 2s-0.895 2-2 2h-19.172l6.586 6.586c0.39 0.39 0.586 0.902 0.586 1.414s-0.195 1.024-0.586 1.414c-0.781 0.781-2.047 0.781-2.828 0z"></path>
</symbol>
<symbol id="icon-facebook-1" viewBox="0 0 32 32">
<path d="M19 6h5v-6h-5c-3.86 0-7 3.14-7 7v3h-4v6h4v16h6v-16h5l1-6h-6v-3c0-0.542 0.458-1 1-1z"></path>
</symbol>
<symbol id="icon-instagram-1" viewBox="0 0 32 32">
<path d="M16 2.881c4.275 0 4.781 0.019 6.462 0.094 1.563 0.069 2.406 0.331 2.969 0.55 0.744 0.288 1.281 0.638 1.837 1.194 0.563 0.563 0.906 1.094 1.2 1.838 0.219 0.563 0.481 1.412 0.55 2.969 0.075 1.688 0.094 2.194 0.094 6.463s-0.019 4.781-0.094 6.463c-0.069 1.563-0.331 2.406-0.55 2.969-0.288 0.744-0.637 1.281-1.194 1.837-0.563 0.563-1.094 0.906-1.837 1.2-0.563 0.219-1.413 0.481-2.969 0.55-1.688 0.075-2.194 0.094-6.463 0.094s-4.781-0.019-6.463-0.094c-1.563-0.069-2.406-0.331-2.969-0.55-0.744-0.288-1.281-0.637-1.838-1.194-0.563-0.563-0.906-1.094-1.2-1.837-0.219-0.563-0.481-1.413-0.55-2.969-0.075-1.688-0.094-2.194-0.094-6.463s0.019-4.781 0.094-6.463c0.069-1.563 0.331-2.406 0.55-2.969 0.288-0.744 0.638-1.281 1.194-1.838 0.563-0.563 1.094-0.906 1.838-1.2 0.563-0.219 1.412-0.481 2.969-0.55 1.681-0.075 2.188-0.094 6.463-0.094zM16 0c-4.344 0-4.887 0.019-6.594 0.094-1.7 0.075-2.869 0.35-3.881 0.744-1.056 0.412-1.95 0.956-2.837 1.85-0.894 0.888-1.438 1.781-1.85 2.831-0.394 1.019-0.669 2.181-0.744 3.881-0.075 1.713-0.094 2.256-0.094 6.6s0.019 4.887 0.094 6.594c0.075 1.7 0.35 2.869 0.744 3.881 0.413 1.056 0.956 1.95 1.85 2.837 0.887 0.887 1.781 1.438 2.831 1.844 1.019 0.394 2.181 0.669 3.881 0.744 1.706 0.075 2.25 0.094 6.594 0.094s4.888-0.019 6.594-0.094c1.7-0.075 2.869-0.35 3.881-0.744 1.050-0.406 1.944-0.956 2.831-1.844s1.438-1.781 1.844-2.831c0.394-1.019 0.669-2.181 0.744-3.881 0.075-1.706 0.094-2.25 0.094-6.594s-0.019-4.887-0.094-6.594c-0.075-1.7-0.35-2.869-0.744-3.881-0.394-1.063-0.938-1.956-1.831-2.844-0.887-0.887-1.781-1.438-2.831-1.844-1.019-0.394-2.181-0.669-3.881-0.744-1.712-0.081-2.256-0.1-6.6-0.1v0z"></path>
<path d="M16 7.781c-4.537 0-8.219 3.681-8.219 8.219s3.681 8.219 8.219 8.219 8.219-3.681 8.219-8.219c0-4.537-3.681-8.219-8.219-8.219zM16 21.331c-2.944 0-5.331-2.387-5.331-5.331s2.387-5.331 5.331-5.331c2.944 0 5.331 2.387 5.331 5.331s-2.387 5.331-5.331 5.331z"></path>
<path d="M26.462 7.456c0 1.060-0.859 1.919-1.919 1.919s-1.919-0.859-1.919-1.919c0-1.060 0.859-1.919 1.919-1.919s1.919 0.859 1.919 1.919z"></path>
</symbol>
<symbol id="icon-twitter-1" viewBox="0 0 32 32">
<path d="M32 7.075c-1.175 0.525-2.444 0.875-3.769 1.031 1.356-0.813 2.394-2.1 2.887-3.631-1.269 0.75-2.675 1.3-4.169 1.594-1.2-1.275-2.906-2.069-4.794-2.069-3.625 0-6.563 2.938-6.563 6.563 0 0.512 0.056 1.012 0.169 1.494-5.456-0.275-10.294-2.888-13.531-6.862-0.563 0.969-0.887 2.1-0.887 3.3 0 2.275 1.156 4.287 2.919 5.463-1.075-0.031-2.087-0.331-2.975-0.819 0 0.025 0 0.056 0 0.081 0 3.181 2.263 5.838 5.269 6.437-0.55 0.15-1.131 0.231-1.731 0.231-0.425 0-0.831-0.044-1.237-0.119 0.838 2.606 3.263 4.506 6.131 4.563-2.25 1.762-5.075 2.813-8.156 2.813-0.531 0-1.050-0.031-1.569-0.094 2.913 1.869 6.362 2.95 10.069 2.95 12.075 0 18.681-10.006 18.681-18.681 0-0.287-0.006-0.569-0.019-0.85 1.281-0.919 2.394-2.075 3.275-3.394z"></path>
</symbol>
<symbol id="icon-menu" viewBox="0 0 24 24">
<path d="M3 13h18c0.552 0 1-0.448 1-1s-0.448-1-1-1h-18c-0.552 0-1 0.448-1 1s0.448 1 1 1zM3 7h18c0.552 0 1-0.448 1-1s-0.448-1-1-1h-18c-0.552 0-1 0.448-1 1s0.448 1 1 1zM3 19h18c0.552 0 1-0.448 1-1s-0.448-1-1-1h-18c-0.552 0-1 0.448-1 1s0.448 1 1 1z"></path>
</symbol>
<symbol id="icon-close" viewBox="0 0 20 20">
<path d="M10 8.586l-7.071-7.071-1.414 1.414 7.071 7.071-7.071 7.071 1.414 1.414 7.071-7.071 7.071 7.071 1.414-1.414-7.071-7.071 7.071-7.071-1.414-1.414-7.071 7.071z"></path>
</symbol>
<symbol id="icon-trash" viewBox="0 0 24 24">
<path d="M18 7v13c0 0.276-0.111 0.525-0.293 0.707s-0.431 0.293-0.707 0.293h-10c-0.276 0-0.525-0.111-0.707-0.293s-0.293-0.431-0.293-0.707v-13zM17 5v-1c0-0.828-0.337-1.58-0.879-2.121s-1.293-0.879-2.121-0.879h-4c-0.828 0-1.58 0.337-2.121 0.879s-0.879 1.293-0.879 2.121v1h-4c-0.552 0-1 0.448-1 1s0.448 1 1 1h1v13c0 0.828 0.337 1.58 0.879 2.121s1.293 0.879 2.121 0.879h10c0.828 0 1.58-0.337 2.121-0.879s0.879-1.293 0.879-2.121v-13h1c0.552 0 1-0.448 1-1s-0.448-1-1-1zM9 5v-1c0-0.276 0.111-0.525 0.293-0.707s0.431-0.293 0.707-0.293h4c0.276 0 0.525 0.111 0.707 0.293s0.293 0.431 0.293 0.707v1zM9 11v6c0 0.552 0.448 1 1 1s1-0.448 1-1v-6c0-0.552-0.448-1-1-1s-1 0.448-1 1zM13 11v6c0 0.552 0.448 1 1 1s1-0.448 1-1v-6c0-0.552-0.448-1-1-1s-1 0.448-1 1z"></path>
</symbol>
<symbol id="icon-cancell" viewBox="0 0 24 24">
<path d="M12 20.016q3.281 0 5.648-2.367t2.367-5.648-2.367-5.648-5.648-2.367-5.648 2.367-2.367 5.648 2.367 5.648 5.648 2.367zM12 2.016q4.125 0 7.055 2.93t2.93 7.055-2.93 7.055-7.055 2.93-7.055-2.93-2.93-7.055 2.93-7.055 7.055-2.93zM14.578 8.016l1.406 1.406-2.578 2.578 2.578 2.578-1.406 1.406-2.578-2.578-2.578 2.578-1.406-1.406 2.578-2.578-2.578-2.578 1.406-1.406 2.578 2.578z"></path>
</symbol>
<symbol id="icon-add" viewBox="0 0 24 24">
<path d="M18.984 12.984h-6v6h-1.969v-6h-6v-1.969h6v-6h1.969v6h6v1.969z"></path>
</symbol>
<symbol id="icon-minus" viewBox="0 0 24 24">
<path d="M5 13h14c0.552 0 1-0.448 1-1s-0.448-1-1-1h-14c-0.552 0-1 0.448-1 1s0.448 1 1 1z"></path>
</symbol>
<symbol id="icon-shop-bag" viewBox="0 0 24 24">
<path d="M19 5h-14l1.5-2h11zM21.794 5.392l-2.994-3.992c-0.196-0.261-0.494-0.399-0.8-0.4h-12c-0.326 0-0.616 0.156-0.8 0.4l-2.994 3.992c-0.043 0.056-0.081 0.117-0.111 0.182-0.065 0.137-0.096 0.283-0.095 0.426v14c0 0.828 0.337 1.58 0.879 2.121s1.293 0.879 2.121 0.879h14c0.828 0 1.58-0.337 2.121-0.879s0.879-1.293 0.879-2.121v-14c0-0.219-0.071-0.422-0.189-0.585-0.004-0.005-0.007-0.010-0.011-0.015zM4 7h16v13c0 0.276-0.111 0.525-0.293 0.707s-0.431 0.293-0.707 0.293h-14c-0.276 0-0.525-0.111-0.707-0.293s-0.293-0.431-0.293-0.707zM15 10c0 0.829-0.335 1.577-0.879 2.121s-1.292 0.879-2.121 0.879-1.577-0.335-2.121-0.879-0.879-1.292-0.879-2.121c0-0.552-0.448-1-1-1s-1 0.448-1 1c0 1.38 0.561 2.632 1.464 3.536s2.156 1.464 3.536 1.464 2.632-0.561 3.536-1.464 1.464-2.156 1.464-3.536c0-0.552-0.448-1-1-1s-1 0.448-1 1z"></path>
</symbol>
<symbol id="icon-user" viewBox="0 0 24 24">
<path d="M21 21v-2c0-1.38-0.561-2.632-1.464-3.536s-2.156-1.464-3.536-1.464h-8c-1.38 0-2.632 0.561-3.536 1.464s-1.464 2.156-1.464 3.536v2c0 0.552 0.448 1 1 1s1-0.448 1-1v-2c0-0.829 0.335-1.577 0.879-2.121s1.292-0.879 2.121-0.879h8c0.829 0 1.577 0.335 2.121 0.879s0.879 1.292 0.879 2.121v2c0 0.552 0.448 1 1 1s1-0.448 1-1zM17 7c0-1.38-0.561-2.632-1.464-3.536s-2.156-1.464-3.536-1.464-2.632 0.561-3.536 1.464-1.464 2.156-1.464 3.536 0.561 2.632 1.464 3.536 2.156 1.464 3.536 1.464 2.632-0.561 3.536-1.464 1.464-2.156 1.464-3.536zM15 7c0 0.829-0.335 1.577-0.879 2.121s-1.292 0.879-2.121 0.879-1.577-0.335-2.121-0.879-0.879-1.292-0.879-2.121 0.335-1.577 0.879-2.121 1.292-0.879 2.121-0.879 1.577 0.335 2.121 0.879 0.879 1.292 0.879 2.121z"></path>
</symbol>
<symbol id="icon-refresh" viewBox="0 0 32 32">
<path d="M26.631 4h4.869c0.276 0 0.5-0.224 0.5-0.5s-0.224-0.5-0.5-0.5h-6c-0.276 0-0.5 0.224-0.5 0.5v6c0 0.276 0.224 0.5 0.5 0.5s0.5-0.224 0.5-0.5v-4.717l0.611 0.611c2.833 2.833 4.394 6.6 4.394 10.606s-1.561 7.773-4.394 10.606c-4.205 4.206-10.504 5.532-16.051 3.375-0.257-0.102-0.547 0.027-0.647 0.284-0.1 0.258 0.027 0.548 0.285 0.647 1.884 0.732 3.848 1.088 5.797 1.088 4.17 0 8.266-1.63 11.323-4.688 3.022-3.021 4.687-7.040 4.687-11.313s-1.665-8.291-4.687-11.312l-0.687-0.687zM6.5 22c-0.276 0-0.5 0.224-0.5 0.5v4.84l-0.713-0.713c-2.833-2.833-4.394-6.6-4.394-10.606s1.561-7.774 4.394-10.607c4.135-4.136 10.351-5.495 15.836-3.456 0.256 0.096 0.546-0.035 0.643-0.295 0.096-0.259-0.036-0.547-0.295-0.643-5.849-2.172-12.48-0.725-16.891 3.687-3.022 3.021-4.687 7.040-4.687 11.313s1.665 8.292 4.687 11.313l0.666 0.667h-4.746c-0.276 0-0.5 0.224-0.5 0.5s0.224 0.5 0.5 0.5h5.856c0.040 0.010 0.376-0.025 0.474-0.123 0.004-0.004 0.005-0.009 0.009-0.013 0.098-0.092 0.161-0.219 0.161-0.364v-6c0-0.276-0.224-0.5-0.5-0.5z"></path>
</symbol>
<symbol id="icon-store" viewBox="0 0 32 32">
<path d="M31.4 11.2l-3-3.998c-0.117-0.157-0.256-0.293-0.4-0.423v-4.779c0-1.104-0.896-2-2-2h-20c-1.105 0-2 0.896-2 2v4.78c-0.144 0.129-0.283 0.264-0.4 0.42l-2.999 3.999c-0.388 0.516-0.601 1.155-0.601 1.801v1c0 1.654 1.346 3 3 3v0 13c0 1.104 0.896 2 2 2h22c1.104 0 2-0.896 2-2v-13c1.654 0 3-1.346 3-3v-1c0-0.646-0.213-1.285-0.6-1.8zM26 2v4h-20v-4h20zM10.193 15h-4.189l4-7h2.189l-2 7zM13.234 8h2.266v7h-4.266l2-7zM16.5 8h2.266l2 7h-4.266v-7zM19.805 8h2.189l4 7h-4.189l-2-7zM2 14v-1c0-0.217 0.070-0.427 0.2-0.6l3-4c0.189-0.252 0.485-0.4 0.8-0.4h2.852l-4 7h-1.852c-0.552 0-1-0.447-1-1zM20 30h-7.5v-10h7.5v10zM27 30h-6v-10c0-0.553-0.449-1-1-1h-7.5c-0.552 0-1 0.447-1 1v10h-6.5v-13h22v13zM30 14c0 0.553-0.447 1-1 1h-1.854l-4-7h2.854c0.314 0 0.611 0.148 0.799 0.4l3 4c0.131 0.173 0.201 0.383 0.201 0.6v1z"></path>
</symbol>
<symbol id="icon-login" viewBox="0 0 24 24">
<path d="M15 4h4c0.276 0 0.525 0.111 0.707 0.293s0.293 0.431 0.293 0.707v14c0 0.276-0.111 0.525-0.293 0.707s-0.431 0.293-0.707 0.293h-4c-0.552 0-1 0.448-1 1s0.448 1 1 1h4c0.828 0 1.58-0.337 2.121-0.879s0.879-1.293 0.879-2.121v-14c0-0.828-0.337-1.58-0.879-2.121s-1.293-0.879-2.121-0.879h-4c-0.552 0-1 0.448-1 1s0.448 1 1 1zM12.586 11h-9.586c-0.552 0-1 0.448-1 1s0.448 1 1 1h9.586l-3.293 3.293c-0.391 0.391-0.391 1.024 0 1.414s1.024 0.391 1.414 0l5-5c0.096-0.096 0.168-0.206 0.217-0.324s0.076-0.247 0.076-0.383c0-0.13-0.025-0.261-0.076-0.383-0.049-0.118-0.121-0.228-0.217-0.324l-5-5c-0.391-0.391-1.024-0.391-1.414 0s-0.391 1.024 0 1.414z"></path>
</symbol>
<symbol id="icon-logout" viewBox="0 0 24 24">
<path d="M9 20h-4c-0.276 0-0.525-0.111-0.707-0.293s-0.293-0.431-0.293-0.707v-14c0-0.276 0.111-0.525 0.293-0.707s0.431-0.293 0.707-0.293h4c0.552 0 1-0.448 1-1s-0.448-1-1-1h-4c-0.828 0-1.58 0.337-2.121 0.879s-0.879 1.293-0.879 2.121v14c0 0.828 0.337 1.58 0.879 2.121s1.293 0.879 2.121 0.879h4c0.552 0 1-0.448 1-1s-0.448-1-1-1zM18.586 11h-9.586c-0.552 0-1 0.448-1 1s0.448 1 1 1h9.586l-3.293 3.293c-0.391 0.391-0.391 1.024 0 1.414s1.024 0.391 1.414 0l5-5c0.092-0.092 0.166-0.202 0.217-0.324 0.15-0.362 0.078-0.795-0.217-1.090l-5-5c-0.391-0.391-1.024-0.391-1.414 0s-0.391 1.024 0 1.414z"></path>
</symbol>
<symbol id="icon-list" viewBox="0 0 24 24">
<path d="M8 7h13c0.552 0 1-0.448 1-1s-0.448-1-1-1h-13c-0.552 0-1 0.448-1 1s0.448 1 1 1zM8 13h13c0.552 0 1-0.448 1-1s-0.448-1-1-1h-13c-0.552 0-1 0.448-1 1s0.448 1 1 1zM8 19h13c0.552 0 1-0.448 1-1s-0.448-1-1-1h-13c-0.552 0-1 0.448-1 1s0.448 1 1 1zM3 7c0.552 0 1-0.448 1-1s-0.448-1-1-1-1 0.448-1 1 0.448 1 1 1zM3 13c0.552 0 1-0.448 1-1s-0.448-1-1-1-1 0.448-1 1 0.448 1 1 1zM3 19c0.552 0 1-0.448 1-1s-0.448-1-1-1-1 0.448-1 1 0.448 1 1 1z"></path>
</symbol>
<symbol id="icon-user" viewBox="0 0 24 24">
<path d="M21 21v-2c0-1.38-0.561-2.632-1.464-3.536s-2.156-1.464-3.536-1.464h-8c-1.38 0-2.632 0.561-3.536 1.464s-1.464 2.156-1.464 3.536v2c0 0.552 0.448 1 1 1s1-0.448 1-1v-2c0-0.829 0.335-1.577 0.879-2.121s1.292-0.879 2.121-0.879h8c0.829 0 1.577 0.335 2.121 0.879s0.879 1.292 0.879 2.121v2c0 0.552 0.448 1 1 1s1-0.448 1-1zM17 7c0-1.38-0.561-2.632-1.464-3.536s-2.156-1.464-3.536-1.464-2.632 0.561-3.536 1.464-1.464 2.156-1.464 3.536 0.561 2.632 1.464 3.536 2.156 1.464 3.536 1.464 2.632-0.561 3.536-1.464 1.464-2.156 1.464-3.536zM15 7c0 0.829-0.335 1.577-0.879 2.121s-1.292 0.879-2.121 0.879-1.577-0.335-2.121-0.879-0.879-1.292-0.879-2.121 0.335-1.577 0.879-2.121 1.292-0.879 2.121-0.879 1.577 0.335 2.121 0.879 0.879 1.292 0.879 2.121z"></path>
</symbol>
<symbol id="icon-map" viewBox="0 0 24 24">
<path d="M7 3.723v13.697l-5 2.857v-13.697zM17 20.277v-13.697l5-2.857v13.696zM15.535 22.885c0.082 0.043 0.17 0.075 0.263 0.094 0.033 0.007 0.067 0.012 0.101 0.015s0.068 0.005 0.102 0.005c-0.001 0.001-0.001 0.001-0.001 0.001s0 0 0.001 0c0.173 0 0.344-0.046 0.496-0.132l0.015-0.009 6.985-3.991c0.32-0.183 0.501-0.518 0.503-0.868v-16c0-0.552-0.448-1-1-1-0.183 0-0.354 0.049-0.496 0.132l-6.535 3.734-7.503-3.752c-0.083-0.042-0.171-0.075-0.264-0.094-0.034-0.007-0.067-0.012-0.101-0.015s-0.068-0.005-0.102-0.005c0.001 0 0.001 0 0.001 0s0 0-0.001 0c-0.173 0-0.344 0.046-0.495 0.132l-0.015 0.008-6.985 3.992c-0.321 0.183-0.502 0.518-0.504 0.868v16c0 0.552 0.448 1 1 1 0.183 0 0.354-0.049 0.496-0.132l6.535-3.734zM15 6.618v13.764l-6-3v-13.764z"></path>
</symbol>
<symbol id="icon-plus-circle" viewBox="0 0 24 24">
<path d="M23 12c0-3.037-1.232-5.789-3.222-7.778s-4.741-3.222-7.778-3.222-5.789 1.232-7.778 3.222-3.222 4.741-3.222 7.778 1.232 5.789 3.222 7.778 4.741 3.222 7.778 3.222 5.789-1.232 7.778-3.222 3.222-4.741 3.222-7.778zM21 12c0 2.486-1.006 4.734-2.636 6.364s-3.878 2.636-6.364 2.636-4.734-1.006-6.364-2.636-2.636-3.878-2.636-6.364 1.006-4.734 2.636-6.364 3.878-2.636 6.364-2.636 4.734 1.006 6.364 2.636 2.636 3.878 2.636 6.364zM8 13h3v3c0 0.552 0.448 1 1 1s1-0.448 1-1v-3h3c0.552 0 1-0.448 1-1s-0.448-1-1-1h-3v-3c0-0.552-0.448-1-1-1s-1 0.448-1 1v3h-3c-0.552 0-1 0.448-1 1s0.448 1 1 1z"></path>
</symbol>
<symbol id="icon-left" viewBox="0 0 24 24">
<path d="M15.707 17.293l-5.293-5.293 5.293-5.293c0.391-0.391 0.391-1.024 0-1.414s-1.024-0.391-1.414 0l-6 6c-0.391 0.391-0.391 1.024 0 1.414l6 6c0.391 0.391 1.024 0.391 1.414 0s0.391-1.024 0-1.414z"></path>
</symbol>
</defs>
</svg>
